<svg width="36" height="36" viewBox="0 0 36 36" fill="none" xmlns="http://www.w3.org/2000/svg">
<path d="M31.5355 15.8752C33.4239 15.8912 34.0401 15.3551 34.2721 15.003C35.1523 13.8588 33.776 11.6582 30.5512 9.98584C31.7995 7.62529 32.6717 5.50478 33.1038 3.98442C33.3439 3.15223 33.1838 2.64811 33.1358 2.56009C33.0158 3.29626 32.0236 5.96889 29.743 9.59375C27.9826 8.80156 25.7661 8.17742 23.1495 7.92136C22.5173 6.72907 20.6929 3.43229 18.8925 1.66388C17.7082 0.503601 16.764 0.0714991 16.0198 0.0154858C15.0436 -0.0965407 14.4274 0.423582 14.0913 0.791669C12.883 2.09598 12.3789 4.23248 12.3309 6.70507C11.8188 5.83286 11.1226 4.97666 10.3304 4.88064H10.3144C8.8581 4.63258 7.6178 6.93712 7.78584 10.594C5.0892 10.69 2.79266 11.0021 1.2483 11.3862C0.552131 11.5622 0.104025 11.8983 0 12.0663C0.072017 12.0423 1.57637 11.4182 7.84986 11.4182C8.21794 15.1471 9.93835 18.5799 9.68229 17.9717C8.99413 19.052 6.99365 22.3568 6.3535 24.8454C5.9374 26.4537 6.04943 27.494 6.3615 28.1581C6.7536 29.0544 7.51378 29.3344 7.99389 29.4384C9.75431 29.8385 11.8908 29.1824 14.0913 27.9501C13.5632 28.8543 13.1151 29.9586 13.4512 30.7187C13.9633 32.1031 16.5799 32.0311 19.6687 30.0546C21.085 32.3191 22.4853 34.1276 23.5896 35.2638C23.7736 35.4559 23.9737 35.6239 24.2057 35.7599C24.5658 35.984 24.8059 36 24.8059 36C24.2297 35.5279 22.4133 33.3274 20.4048 29.5425C21.9652 28.4142 23.6136 26.8058 25.1499 24.6693C33.784 24.9894 35.2243 22.9249 35.5604 22.4448C36.6007 21.0685 35.8085 18.4278 31.5355 15.8752ZM26.0622 23.349C27.7346 20.7004 28.1987 18.5799 28.1347 16.8515C30.0951 18.0838 31.4554 19.4921 31.5835 20.9884C31.6635 21.9007 31.0153 23.0369 26.0622 23.349ZM15.2356 27.2699C15.9238 26.8298 16.6119 26.3497 17.2921 25.8296C17.7642 26.7658 18.2523 27.662 18.7404 28.5182C15.8838 30.0546 13.8993 29.4144 15.2356 27.2699ZM30.3592 15.2191C29.639 14.843 28.8708 14.4909 28.0786 14.1628C28.6388 13.3146 29.1749 12.4504 29.679 11.5702C32.4317 13.2666 32.9118 15.3071 30.3592 15.2191ZM19.6206 27.9981C19.2366 27.1979 18.8445 26.3417 18.4604 25.4375C21.5011 25.5255 22.8534 24.1172 22.9094 24.0052C22.9094 24.0132 21.149 25.1014 18.5084 24.8694C20.6609 23.0689 22.6614 21.0925 24.4938 18.964C25.1099 18.2438 25.6941 17.5156 26.2462 16.7795C26.2222 16.7554 26.1342 16.5714 25.0859 15.9393C21.4531 20.1803 17.8922 22.8289 15.7477 24.0932C14.2994 23.309 12.875 21.8607 11.8268 19.7722C10.4185 16.9635 9.7143 13.9788 9.61027 11.6102C10.4745 11.6742 11.3867 11.7623 12.3389 11.8823C10.7705 14.4669 11.3307 16.3153 11.3947 16.4034C11.3947 16.3954 11.3307 14.3549 12.811 12.2104C13.4432 15.8992 14.4994 19.5081 15.9558 22.9569C16.0198 22.9329 16.0838 23.0209 17.2681 22.3728C15.4196 17.1315 14.8915 12.6585 14.8755 10.1779C16.2839 9.30568 18.2603 8.78556 20.6129 8.92159C23.7496 9.10564 26.6863 9.99385 28.7908 11.0821C28.2867 11.8183 27.7426 12.5785 27.1504 13.3626C25.6941 10.706 23.8296 10.2739 23.7176 10.2899C23.7256 10.2899 25.542 11.2822 26.6383 13.6107C23.9977 12.6425 21.285 11.8983 18.5244 11.3782C17.6042 11.2101 16.6839 11.0661 15.7557 10.9541C15.7477 10.9861 15.6277 11.0821 15.6037 12.3864C21.077 13.4027 25.214 15.1951 27.3665 16.4114C27.4225 18.0678 26.8784 20.0442 25.5821 22.0047C23.8536 24.6133 21.6131 26.7178 19.6206 27.9981ZM21.5491 7.81733C18.4124 7.6973 16.3719 8.33745 14.8915 9.27368C15.0356 5.59281 16.3879 3.90441 17.5802 3.97642C18.7644 3.67235 21.4371 7.64129 21.5491 7.81733ZM12.3549 8.03338C12.3869 8.88158 12.4669 9.76179 12.579 10.658C11.5547 10.602 10.5545 10.57 9.59427 10.57C9.58627 10.794 9.58627 6.98513 11.3307 7.08116H11.3387C11.7468 7.15317 12.0909 7.56127 12.3549 8.03338ZM10.3865 19.4281C11.8428 22.2207 13.4352 23.6851 14.9715 24.5173C11.6828 26.2617 9.52225 25.9256 9.00213 24.8374C8.98613 24.8134 8.21794 23.7491 10.3865 19.4281Z" fill="white"/>
</svg>
