<svg width="33" height="33" viewBox="0 0 33 33" fill="none" xmlns="http://www.w3.org/2000/svg">
<path d="M19.5746 32.7273H24.587C29.1893 32.7273 32.9713 28.9452 32.9713 24.343V8.38432C32.9713 3.78205 29.1893 0 24.587 0H19.4734C19.3721 0 19.2658 0.10125 19.2658 0.2025V32.5248C19.2658 32.626 19.367 32.7273 19.5746 32.7273ZM25.8122 14.7283C27.6552 14.7283 29.0829 16.2624 29.0829 17.999C29.0829 19.8419 27.5488 21.2697 25.8122 21.2697C23.9693 21.2697 22.5415 19.8419 22.5415 17.999C22.4352 16.1611 23.9693 14.7283 25.8122 14.7283ZM15.7875 0H8.62837C4.02609 0 0.244049 3.78205 0.244049 8.38432V24.343C0.244049 28.9452 4.02609 32.7273 8.62837 32.7273H15.7875C15.8887 32.7273 15.9951 32.626 15.9951 32.5248V0.2025C15.9951 0.10125 15.8938 0 15.7875 0ZM13.4383 30.0692H8.62837C7.87604 30.0704 7.13088 29.9231 6.43559 29.6358C5.7403 29.3484 5.10857 28.9267 4.57659 28.3947C4.04462 27.8628 3.62287 27.231 3.33553 26.5357C3.04819 25.8404 2.9009 25.0953 2.90212 24.343V8.38432C2.9009 7.632 3.04819 6.88683 3.33553 6.19154C3.62287 5.49626 4.04462 4.86452 4.57659 4.33254C5.10857 3.80057 5.7403 3.37883 6.43559 3.09148C7.13088 2.80414 7.87604 2.65686 8.62837 2.65807H13.337L13.4383 30.0692ZM5.35769 9.81716C5.35769 11.5538 6.68928 12.8853 8.42587 12.8853C10.1625 12.8853 11.494 11.5538 11.494 9.81716C11.494 8.08057 10.1625 6.74898 8.42587 6.74898C6.68928 6.74898 5.35769 8.08057 5.35769 9.81716Z" fill="white"/>
</svg>
