<svg width="43" height="33" viewBox="0 0 43 33" fill="none" xmlns="http://www.w3.org/2000/svg">
<path d="M42.2705 25.047C41.441 26.0938 39.4109 26.8385 39.4109 26.8385L24.3154 32.2608V28.2617L35.425 24.3049C36.6865 23.8544 36.88 23.2131 35.8544 22.8791C34.8314 22.5426 32.9789 22.6406 31.7201 23.0912L24.3154 25.699V21.5487L24.7421 21.4056C24.7421 21.4056 26.8808 20.6477 29.8888 20.3138C32.8967 19.9825 36.5805 20.3588 39.4719 21.4533C42.7316 22.4869 43.0973 24.0028 42.2705 25.047V25.047ZM25.7518 18.2413V8.01154C25.7518 6.811 25.5318 5.70587 24.4055 5.39315C23.5415 5.11488 23.0062 5.91789 23.0062 7.11578V32.7273L16.0998 30.5356V0C19.0362 0.54594 23.3136 1.83394 25.614 2.61044C31.463 4.61664 33.4453 7.11578 33.4453 12.7474C33.4453 18.236 30.0584 20.3164 25.7518 18.2386V18.2413ZM3.42656 27.8483C0.082014 26.8995 -0.474527 24.9383 1.04934 23.8094C2.45924 22.7652 4.85502 21.9807 4.85502 21.9807L14.7588 18.456V22.471L7.62977 25.0232C6.37358 25.4737 6.18012 26.1124 7.20309 26.449C8.22607 26.7829 10.0786 26.6875 11.3374 26.2369L14.7561 24.994V28.5877L14.075 28.7016C10.5085 29.2791 6.85511 28.9854 3.42656 27.8456V27.8483Z" fill="white"/>
</svg>
