<svg width="33" height="33" viewBox="0 0 33 33" fill="none" xmlns="http://www.w3.org/2000/svg">
<path d="M7.49315 2.81455C7.6077 2.71636 7.72224 2.61818 7.80406 2.55273C10.3568 0.9 13.335 0 16.6077 0C19.6841 0 22.5641 0.818182 25.0186 2.32364C25.1986 2.45455 25.6732 2.76545 25.935 3.07636C23.5622 0.458182 16.6077 6.05454 16.6077 6.05454C14.1532 4.20545 11.9768 2.94545 10.3241 2.45455C8.93315 2.11091 7.98406 2.45455 7.54224 2.78182L7.49315 2.81455ZM28.6186 5.25273C28.5368 5.17091 28.455 5.08909 28.3895 5.00727C27.8004 4.35273 27.0477 4.18909 26.4259 4.23818C25.7877 4.43455 22.9895 5.43273 19.5532 8.68909C19.5532 8.68909 23.4313 12.4527 25.8041 16.2982C28.1768 20.1436 29.5841 23.1709 28.7168 27.3764C31.335 24.4636 32.9713 20.6018 32.9713 16.3636C32.9713 12.0764 31.335 8.18182 28.6186 5.25273ZM22.7113 17.9345C21.6477 16.7564 20.0932 15.0709 18.015 13.0091C17.5732 12.5673 17.0986 12.1091 16.6077 11.6182C16.6077 11.6182 15.8386 12.3709 14.8568 13.3691C13.5968 14.6291 11.9768 16.2818 11.0604 17.2473C9.45679 18.9655 4.84225 24.3655 4.58043 27.3927C4.58043 27.3927 3.51679 25.0036 5.8077 19.4564C7.28043 15.84 11.6986 10.4073 13.5804 8.64C13.5804 8.64 11.895 6.77455 9.7677 5.48182L9.68588 5.43273C8.65497 4.82727 7.54225 4.35273 6.46224 4.28727C5.36588 4.36909 4.67861 5.17091 4.67861 5.17091C1.82526 8.19858 0.238592 12.2033 0.244063 16.3636C0.244063 20.7035 1.96808 24.8657 5.03686 27.9345C6.55637 29.454 8.36028 30.6593 10.3456 31.4817C12.3309 32.304 14.4588 32.7273 16.6077 32.7273C21.4022 32.7273 25.7222 30.6655 28.7168 27.3764C28.7168 27.3764 28.3732 25.2 26.1641 22.0909C25.6568 21.3873 23.7586 19.1291 22.7113 17.9345Z" fill="white"/>
</svg>
